<svg height="710" viewBox="0 0 710 710" width="710" xmlns="http://www.w3.org/2000/svg" xmlns:xlink="http://www.w3.org/1999/xlink"><linearGradient id="a" x1="50%" x2="50%" y1="0%" y2="100%"><stop offset="0" stop-color="#def5fd"/><stop offset="1" stop-color="#bae7fa"/></linearGradient><g fill="none" fill-rule="evenodd" transform="translate(108 32)"><g transform="translate(21.801039 .119764)"><path d="m427.903156 209.170392c0 114.817823-95.954676 207.956608-213.903156 207.956608-118.2239351 0-213.90315597-93.138785-213.90315597-207.956608.00109308-115.0849014 95.67922087-208.22368632 213.90315597-208.22368632 117.94848 0 213.903156 93.13878492 213.903156 208.22368632z" fill="url(#a)" opacity=".202955"/><path d="m214 31.6c107.905 0 195.689 87.532 195.689 195.689 0 107.906-87.784 195.438-195.689 195.438-108.157 0-195.689-87.532-195.689-195.438.001-108.157 87.532-195.689 195.689-195.689z" fill="#2799eb"/><path d="m171.743 418.199c-87.783-19.116-153.432-97.341-153.432-190.91 0-93.82 65.648-172.045 153.432-191.161 87.783 19.116 153.683 97.341 153.683 191.161.001 93.568-65.899 171.794-153.683 190.91z" fill="#47c6ff"/><path d="m214 439.579h-156.953c-26.41 7.043-41.754 24.398-45.275 52.821h202.228 202.228c-3.522-28.423-19.116-45.778-45.526-52.821z" fill="#2c3337"/><path d="m214 397.574h-104.887c-22.637 1.258-50.557 14.337-52.066 42.256h156.953 156.702c-1.258-27.92-29.429-40.999-52.067-42.256z" fill="#40494c"/></g><path d="m152.234026 114.479212c5.218151 17.176944 18.660414 30.619207 35.837358 35.837359 17.904821 5.986751 17.904821 11.945786 0 17.877104-17.176944 5.218152-30.619207 18.660415-35.837358 35.837359-5.986752 17.904821-11.945787 17.904821-17.877105 0-5.218152-17.176944-18.660415-30.619207-35.8373585-35.837359-17.9048211-5.986751-17.9048211-11.945786 0-17.877104 17.1769435-5.218152 30.6192065-18.660415 35.8373585-35.837359 5.931318-17.960254 11.890353-17.960254 17.877105 0z" fill="#fff" fill-rule="nonzero"/><path d="m54.576 577.720236v-18.576h45.072v41.328c-10.08 10.8-25.2 17.136-40.464 17.136-29.232 0-53.712-23.472-53.712-51.264s24.48-51.12 53.712-51.12c15.264 0 30.384 6.336 40.464 16.992l-18 15.984c-5.328-6.624-13.968-10.656-22.464-10.656-15.408 0-28.512 13.248-28.512 28.8 0 15.696 13.104 28.944 28.512 28.944 5.76 0 11.664-1.872 16.56-5.184v-12.384zm104.414397-36.288h24.336v74.448h-24.336v-8.496c-4.608 6.336-12.528 10.224-21.888 10.224-15.984 0-27.36-11.952-27.36-28.8v-47.376h23.328v41.904c0 8.208 5.184 13.968 12.672 13.968s13.104-5.616 13.104-12.96l.144.432zm71.294397 56.448c5.76 0 12.384-2.448 16.848-6.336l14.4 14.544c-6.624 6.768-19.44 11.52-30.528 11.52-23.04 0-40.032-16.272-40.032-39.168 0-22.608 16.416-38.736 38.88-38.736 23.616 0 37.44 17.28 37.44 45.648h-53.136c2.304 7.488 8.208 12.528 16.128 12.528zm0-38.592c-7.344 0-13.248 4.32-15.84 11.232h30.24c-2.016-6.768-7.056-11.232-14.4-11.232zm73.742398 58.32c-12.528 0-25.488-4.176-34.56-11.232l9.792-15.696c6.912 4.896 16.416 8.496 25.344 8.496 5.328 0 8.352-1.728 8.352-4.608 0-3.6-4.896-5.04-12.24-6.768-14.4-3.312-27.792-7.056-27.936-23.184 0-14.256 11.664-24.912 30.096-24.912 11.088 0 21.888 3.888 30.24 9.504l-8.928 15.984c-6.48-4.176-14.544-7.344-21.312-7.344-4.464 0-7.632 2.016-7.632 4.32 0 3.312 3.168 4.032 11.952 6.336 13.248 3.168 28.08 7.488 28.08 24.48 0 14.976-12.096 24.624-31.248 24.624zm67.694397 0c-12.528 0-25.488-4.176-34.56-11.232l9.792-15.696c6.912 4.896 16.416 8.496 25.344 8.496 5.328 0 8.352-1.728 8.352-4.608 0-3.6-4.896-5.04-12.24-6.768-14.4-3.312-27.792-7.056-27.936-23.184 0-14.256 11.664-24.912 30.096-24.912 11.088 0 21.888 3.888 30.24 9.504l-8.928 15.984c-6.48-4.176-14.544-7.344-21.312-7.344-4.464 0-7.632 2.016-7.632 4.32 0 3.312 3.168 4.032 11.952 6.336 13.248 3.168 28.08 7.488 28.08 24.48 0 14.976-12.096 24.624-31.248 24.624z" fill="#fff"/><path d="m417.014 616.972236c-5.46 0-9.646-4.277-9.646-9.555 0-4.914 4.186-9.191 9.646-9.191 5.005 0 9.191 4.277 9.191 9.191 0 5.278-4.186 9.555-9.191 9.555zm23.578098-53.872c-4.55 0-8.19-3.731-8.19-8.19 0-4.277 3.64-8.008 8.19-8.008 4.459 0 8.008 3.731 8.008 8.008 0 4.459-3.549 8.19-8.008 8.19zm-8.099 68.978c-3.458 0-7.644-.819-10.101-2.002l1.547-11.284c1.183.455 3.094.819 4.641.819 2.457 0 4.186-2.093 4.186-5.096v-45.682h15.379v47.411c0 9.282-6.461 15.834-15.652 15.834zm41.505098-15.106c-7.917 0-16.107-2.639-21.84-7.098l6.188-9.919c4.368 3.094 10.374 5.369 16.016 5.369 3.367 0 5.278-1.092 5.278-2.912 0-2.275-3.094-3.185-7.735-4.277-9.1-2.093-17.563-4.459-17.654-14.651 0-9.009 7.371-15.743 19.019-15.743 7.007 0 13.832 2.457 19.11 6.006l-5.642 10.101c-4.095-2.639-9.191-4.641-13.468-4.641-2.821 0-4.823 1.274-4.823 2.73 0 2.093 2.002 2.548 7.553 4.004 8.372 2.002 17.745 4.732 17.745 15.47 0 9.464-7.644 15.561-19.747 15.561z" fill="#9b9b9b"/></g></svg>